<svg xmlns="http://www.w3.org/2000/svg" height="48" viewBox="0 -960 960 960" width="48" fill="#8596b8"><path d="M474.727-133q5.364 0 11.228-2.5Q491.818-138 496-142l324-325q19-19 31.5-43.167Q864-534.333 864-557q0-26-10-49.5T826-649L676-799q-12-11-32.278-18T603-824q-19.667 0-38.333 7Q546-810 533-800l-12 13 79.831 79.843Q613-693 624-671.929q11 21.072 11 43.929 0 40.606-32 72.803Q571-523 529.97-523q-26.586 0-45.278-8t-33.377-22.841L384-622 199.949-437.949Q195-433 193-428.105q-2 4.894-2 11.631Q191-406 198-399t17.394 7q6.697 0 11.561-3 4.863-3 9.045-7l140-140 50 50-139.065 139.043Q282-348 280-342.632q-2 5.369-2 11.79 0 9.842 7 17.342 7 7.5 18 7.5 6.286 0 11.071-2.5 4.786-2.5 8.929-6.5l140-141 50 50-140.043 139.029Q370-262 367-256.833q-3 5.166-3 11.833 0 11 7.5 18t17.227 7q6.364 0 10.682-2 4.318-2 9.591-7l140-140 50 50-140.043 140.043Q454-174 452-168.632q-2 5.369-2 10.79 0 11.842 6.5 18.342 6.5 6.5 18.227 6.5Zm-.663 70q-36.195 0-63.256-23.785T379-147.119Q345-152 320-176.5T292-236q-35-5-58.5-28T206-322q-39-6-65-34.5T115-426q0-17 8.224-36.049T144-494l235-236 115 115q7 8 16.333 13.5 9.334 5.5 18.975 5.5Q540-596 551-606.325t11-22.829q0-6.179-4.5-13.013Q553-649 546-657L404.071-798.923Q391-812 372.5-818q-18.5-6-35.5-6-16.667 0-34.833 6-18.167 6-30.108 18.857L134-662q-23 23-31 46.5t-7 51q0 13.5 7.5 25.75T120-517l-55 55q-17-17-29-45t-13-59q-1-41 15.5-80.5T84-715l141-141q19-19 48.793-29.5 29.794-10.5 64-10.5Q370-896 400.5-885t53.5 34l12 13 13-13q25-23 57.293-34 32.294-11 67.5-11Q644-896 673.5-885.5q29.5 10.5 48.734 29.734L877-701q30 30 45 67.033t15 77q0 35.389-18 71.678Q901-449 871-419L546-93q-13 13-32.76 21.5-19.76 8.5-39.176 8.5ZM356-633Z"/></svg>